<svg width="309" height="59" viewBox="0 0 309 59" fill="none" xmlns="http://www.w3.org/2000/svg">
<path d="M109 26.823C109.161 26.9379 109.341 27.0673 109.541 27.2156C110.225 27.7231 111.008 28.3322 112.02 29.1189L112.021 29.1199L115.851 32.0964V32.0974C116.503 32.605 116.997 32.9895 117.417 33.3279C117.534 33.4222 117.637 33.5086 117.729 33.5847C117.732 33.704 117.738 33.8377 117.74 33.988C117.749 34.527 117.75 35.1544 117.75 35.9812V40.7917C117.75 42.4045 117.749 43.6712 117.722 44.7585C117.713 45.0895 117.702 45.3847 117.689 45.6482C117.426 45.6605 117.131 45.6721 116.801 45.6804C115.713 45.7079 114.446 45.7087 112.833 45.7087H105.167C103.554 45.7087 102.287 45.7079 101.199 45.6804C100.868 45.6721 100.573 45.6606 100.31 45.6482C100.297 45.3847 100.287 45.0895 100.278 44.7585C100.251 43.6712 100.25 42.4045 100.25 40.7917V35.9812C100.25 35.1544 100.251 34.527 100.26 33.988C100.262 33.8373 100.267 33.7032 100.271 33.5837C100.362 33.508 100.464 33.4228 100.581 33.3289C101 32.9911 101.494 32.6055 102.146 32.0984L105.979 29.1199L105.98 29.1189C106.992 28.3322 107.775 27.7231 108.459 27.2156C108.659 27.0673 108.839 26.9379 109 26.823Z" stroke="black" style="stroke:black;stroke-opacity:1;" stroke-width="17" stroke-linecap="round" stroke-linejoin="round"/>
<path d="M20.16 53L13.152 40.28H11.184V53H2.976V19.304H16.752C19.408 19.304 21.664 19.768 23.52 20.696C25.408 21.624 26.816 22.904 27.744 24.536C28.672 26.136 29.136 27.928 29.136 29.912C29.136 32.152 28.496 34.152 27.216 35.912C25.968 37.672 24.112 38.92 21.648 39.656L29.424 53H20.16ZM11.184 34.472H16.272C17.776 34.472 18.896 34.104 19.632 33.368C20.4 32.632 20.784 31.592 20.784 30.248C20.784 28.968 20.4 27.96 19.632 27.224C18.896 26.488 17.776 26.12 16.272 26.12H11.184V34.472ZM58.5765 39.176C58.5765 39.944 58.5285 40.744 58.4325 41.576H39.8565C39.9845 43.24 40.5125 44.52 41.4405 45.416C42.4005 46.28 43.5685 46.712 44.9445 46.712C46.9925 46.712 48.4165 45.848 49.2165 44.12H57.9525C57.5045 45.88 56.6885 47.464 55.5045 48.872C54.3525 50.28 52.8965 51.384 51.1365 52.184C49.3765 52.984 47.4085 53.384 45.2325 53.384C42.6085 53.384 40.2725 52.824 38.2245 51.704C36.1765 50.584 34.5765 48.984 33.4245 46.904C32.2725 44.824 31.6965 42.392 31.6965 39.608C31.6965 36.824 32.2565 34.392 33.3765 32.312C34.5285 30.232 36.1285 28.632 38.1765 27.512C40.2245 26.392 42.5765 25.832 45.2325 25.832C47.8245 25.832 50.1285 26.376 52.1445 27.464C54.1605 28.552 55.7285 30.104 56.8485 32.12C58.0005 34.136 58.5765 36.488 58.5765 39.176ZM50.1765 37.016C50.1765 35.608 49.6965 34.488 48.7365 33.656C47.7765 32.824 46.5765 32.408 45.1365 32.408C43.7605 32.408 42.5925 32.808 41.6325 33.608C40.7045 34.408 40.1285 35.544 39.9045 37.016H50.1765ZM78.2666 25.928C81.4026 25.928 83.8986 26.952 85.7546 29C87.6426 31.016 88.5866 33.8 88.5866 37.352V53H80.4266V38.456C80.4266 36.664 79.9626 35.272 79.0346 34.28C78.1066 33.288 76.8586 32.792 75.2906 32.792C73.7226 32.792 72.4746 33.288 71.5466 34.28C70.6186 35.272 70.1546 36.664 70.1546 38.456V53H61.9466V26.216H70.1546V29.768C70.9866 28.584 72.1066 27.656 73.5146 26.984C74.9226 26.28 76.5066 25.928 78.2666 25.928ZM142.226 45.32L148.034 26.216H156.77L147.266 53H137.138L127.634 26.216H136.418L142.226 45.32ZM157.633 39.56C157.633 36.808 158.145 34.392 159.169 32.312C160.225 30.232 161.649 28.632 163.441 27.512C165.233 26.392 167.233 25.832 169.441 25.832C171.329 25.832 172.977 26.216 174.385 26.984C175.825 27.752 176.929 28.76 177.697 30.008V26.216H185.905V53H177.697V49.208C176.897 50.456 175.777 51.464 174.337 52.232C172.929 53 171.281 53.384 169.393 53.384C167.217 53.384 165.233 52.824 163.441 51.704C161.649 50.552 160.225 48.936 159.169 46.856C158.145 44.744 157.633 42.312 157.633 39.56ZM177.697 39.608C177.697 37.56 177.121 35.944 175.969 34.76C174.849 33.576 173.473 32.984 171.841 32.984C170.209 32.984 168.817 33.576 167.665 34.76C166.545 35.912 165.985 37.512 165.985 39.56C165.985 41.608 166.545 43.24 167.665 44.456C168.817 45.64 170.209 46.232 171.841 46.232C173.473 46.232 174.849 45.64 175.969 44.456C177.121 43.272 177.697 41.656 177.697 39.608ZM203.075 53.336C200.611 53.336 198.403 52.936 196.451 52.136C194.499 51.336 192.931 50.152 191.747 48.584C190.595 47.016 189.987 45.128 189.923 42.92H198.659C198.787 44.168 199.219 45.128 199.955 45.8C200.691 46.44 201.651 46.76 202.835 46.76C204.051 46.76 205.011 46.488 205.715 45.944C206.419 45.368 206.771 44.584 206.771 43.592C206.771 42.76 206.483 42.072 205.907 41.528C205.363 40.984 204.675 40.536 203.843 40.184C203.043 39.832 201.891 39.432 200.387 38.984C198.211 38.312 196.435 37.64 195.059 36.968C193.683 36.296 192.499 35.304 191.507 33.992C190.515 32.68 190.019 30.968 190.019 28.856C190.019 25.72 191.155 23.272 193.427 21.512C195.699 19.72 198.659 18.824 202.307 18.824C206.019 18.824 209.011 19.72 211.283 21.512C213.555 23.272 214.771 25.736 214.931 28.904H206.051C205.987 27.816 205.587 26.968 204.851 26.36C204.115 25.72 203.171 25.4 202.019 25.4C201.027 25.4 200.227 25.672 199.619 26.216C199.011 26.728 198.707 27.48 198.707 28.472C198.707 29.56 199.219 30.408 200.243 31.016C201.267 31.624 202.867 32.28 205.043 32.984C207.219 33.72 208.979 34.424 210.323 35.096C211.699 35.768 212.883 36.744 213.875 38.024C214.867 39.304 215.363 40.952 215.363 42.968C215.363 44.888 214.867 46.632 213.875 48.2C212.915 49.768 211.507 51.016 209.651 51.944C207.795 52.872 205.603 53.336 203.075 53.336ZM223.582 23.432C222.142 23.432 220.958 23.016 220.03 22.184C219.134 21.32 218.686 20.264 218.686 19.016C218.686 17.736 219.134 16.68 220.03 15.848C220.958 14.984 222.142 14.552 223.582 14.552C224.99 14.552 226.142 14.984 227.038 15.848C227.966 16.68 228.43 17.736 228.43 19.016C228.43 20.264 227.966 21.32 227.038 22.184C226.142 23.016 224.99 23.432 223.582 23.432ZM227.662 26.216V53H219.454V26.216H227.662ZM266.826 25.928C270.154 25.928 272.794 26.936 274.746 28.952C276.73 30.968 277.722 33.768 277.722 37.352V53H269.562V38.456C269.562 36.728 269.098 35.4 268.17 34.472C267.274 33.512 266.026 33.032 264.426 33.032C262.826 33.032 261.562 33.512 260.634 34.472C259.738 35.4 259.29 36.728 259.29 38.456V53H251.13V38.456C251.13 36.728 250.666 35.4 249.738 34.472C248.842 33.512 247.594 33.032 245.994 33.032C244.394 33.032 243.13 33.512 242.202 34.472C241.306 35.4 240.858 36.728 240.858 38.456V53H232.65V26.216H240.858V29.576C241.69 28.456 242.778 27.576 244.122 26.936C245.466 26.264 246.986 25.928 248.682 25.928C250.698 25.928 252.49 26.36 254.058 27.224C255.658 28.088 256.906 29.32 257.802 30.92C258.73 29.448 259.994 28.248 261.594 27.32C263.194 26.392 264.938 25.928 266.826 25.928Z" fill="black" style="fill:black;fill-opacity:1;"/>
</svg>
