<svg width="402" height="60" viewBox="0 0 402 60" fill="none" xmlns="http://www.w3.org/2000/svg">
<g clip-path="url(#clip0_2786_2)">
<path d="M179 26.259C179.447 26.5986 179.96 26.9942 180.587 27.4817L180.588 27.4827L183.751 29.9417V29.9426C184.149 30.2527 184.468 30.5042 184.743 30.7219C184.746 31.0726 184.75 31.4787 184.75 31.9836V35.9583C184.75 36.9696 184.746 37.8028 184.736 38.5276C184.012 38.5373 183.178 38.5413 182.167 38.5413H175.833C174.821 38.5413 173.988 38.5373 173.263 38.5276C173.253 37.8028 173.25 36.9696 173.25 35.9583V31.9836C173.25 31.4787 173.253 31.0726 173.256 30.7219C173.53 30.5048 173.849 30.2538 174.246 29.9446L174.245 29.9436L177.412 27.4827L177.413 27.4817C178.04 26.9942 178.553 26.5986 179 26.259Z" stroke="#F5F5F5" style="stroke:#F5F5F5;stroke:color(display-p3 0.9608 0.9608 0.9608);stroke-opacity:1;" stroke-width="17" stroke-linecap="round" stroke-linejoin="round"/>
<path d="M88.52 46H79.88V11.68H96.056C103.688 11.68 108.296 15.232 108.296 21.472C108.296 26.272 105.608 29.104 101.336 30.064V30.16C109.928 31.648 106.808 44.944 108.776 45.52V46H99.8C98.12 44.56 101.24 34.048 93.896 34.048H88.52V46ZM88.52 26.992H94.376C97.832 26.992 99.656 25.744 99.656 22.864C99.656 19.984 97.832 18.736 94.376 18.736H88.52V26.992ZM134.643 34.624V35.776H116.979C116.979 39.184 119.379 41.056 122.259 41.056C124.995 41.056 126.147 39.808 126.627 38.56H134.451C133.059 43.552 128.979 46.816 122.067 46.816C114.099 46.816 109.299 41.392 109.299 33.712C109.299 26.512 113.811 20.608 122.067 20.608C130.419 20.608 134.643 25.552 134.643 34.624ZM117.027 31.024H126.915C126.915 27.856 125.043 26.176 122.067 26.176C119.139 26.176 117.219 27.856 117.027 31.024ZM152.751 20.656C157.503 20.656 160.719 23.776 160.719 29.392V46H153.039V31.84C153.039 28.144 151.743 26.896 149.199 26.896C146.271 26.896 144.591 28.384 144.591 31.792V46H136.911V21.424H144.591V24.976H144.687C145.983 22.72 148.383 20.656 152.751 20.656ZM210.461 46H202.013L193.517 21.424H201.293L206.285 37.648H206.381L211.373 21.424H218.957L210.461 46ZM225.904 46.768C221.104 46.768 218.08 43.936 218.08 39.568C218.08 34.48 222.256 32.512 227.488 31.408C230.176 30.832 233.968 30.448 233.968 28C233.968 26.656 232.912 25.792 230.704 25.792C227.872 25.792 226.576 26.944 226.336 29.344H219.04C219.28 24.64 222.736 20.608 231.04 20.608C237.712 20.608 241.408 23.296 241.408 30.832V40.336C241.408 41.632 241.552 42.208 242.32 42.208C242.512 42.208 242.656 42.208 242.944 42.16V45.808C241.408 46.096 239.824 46.24 238.72 46.24C235.648 46.24 234.496 45.088 234.112 43.024H234.016C232.288 45.184 229.456 46.768 225.904 46.768ZM229.12 41.488C232.192 41.488 233.968 38.896 233.968 36.064V34C232.96 34.384 231.808 34.672 229.792 35.152C226.96 35.824 225.952 37.024 225.952 38.752C225.952 40.624 227.152 41.488 229.12 41.488ZM259.064 46.768C250.088 46.768 243.32 42.208 243.32 34.336H252.056C252.056 38.32 255.08 39.808 258.968 39.808C262.184 39.808 263.816 38.512 263.816 36.736C263.816 33.808 260.408 33.04 255.656 31.6C249.704 29.776 244.376 27.472 244.376 21.328C244.376 13.84 250.232 10.912 257.624 10.912C265.64 10.912 271.928 15.136 272.168 22.096H263.432C263.048 19.456 260.936 17.872 257.624 17.872C255.032 17.872 253.208 18.736 253.208 20.704C253.208 23.008 255.128 23.776 259.496 25.072C265.976 26.992 272.648 28.816 272.648 35.92C272.648 42.496 267.656 46.768 259.064 46.768ZM282.364 18.496H274.684V11.68H282.364V18.496ZM282.364 46H274.684V21.424H282.364V46ZM315.87 20.656C320.814 20.656 323.742 23.776 323.742 29.392V46H315.966V31.84C315.966 28.144 315.198 26.896 312.462 26.896C310.014 26.896 308.478 28.384 308.478 31.792V46H300.798V31.84C300.798 28.144 300.03 26.896 297.294 26.896C294.894 26.896 293.31 28.384 293.31 31.792V46H285.63V21.424H293.31V24.976H293.406C294.702 22.72 297.39 20.656 301.086 20.656C304.302 20.656 306.558 22.432 307.518 24.976H307.614C309.726 22.528 311.886 20.656 315.87 20.656Z" fill="#F5F5F5" style="fill:#F5F5F5;fill:color(display-p3 0.9608 0.9608 0.9608);fill-opacity:1;"/>
<rect x="52.2952" y="19.7048" width="36.2951" height="36.2951" rx="4" transform="rotate(90 52.2952 19.7048)" fill="#3B411E" style="fill:#3B411E;fill:color(display-p3 0.2314 0.2549 0.1176);fill-opacity:1;"/>
<rect x="70" y="2" width="36.2951" height="36.2951" rx="4" transform="rotate(90 70 2)" fill="#3B411E" style="fill:#3B411E;fill:color(display-p3 0.2314 0.2549 0.1176);fill-opacity:1;"/>
<rect x="16.8853" y="21.2976" width="24.7869" height="20.3607" transform="rotate(-45 16.8853 21.2976)" fill="#3B411E" style="fill:#3B411E;fill:color(display-p3 0.2314 0.2549 0.1176);fill-opacity:1;"/>
<rect x="36.3606" y="40.7729" width="24.7869" height="20.3607" transform="rotate(-45 36.3606 40.7729)" fill="#3B411E" style="fill:#3B411E;fill:color(display-p3 0.2314 0.2549 0.1176);fill-opacity:1;"/>
<path d="M46.64 33H40.16V7.26H52.292C58.016 7.26 61.472 9.924 61.472 14.604C61.472 18.204 59.456 20.328 56.252 21.048V21.12C62.696 22.236 60.356 32.208 61.832 32.64V33H55.1C53.84 31.92 56.18 24.036 50.672 24.036H46.64V33ZM46.64 18.744H51.032C53.624 18.744 54.992 17.808 54.992 15.648C54.992 13.488 53.624 12.552 51.032 12.552H46.64V18.744Z" fill="white" style="fill:white;fill-opacity:1;"/>
<rect x="59.2952" y="21.7048" width="36.2951" height="36.2951" rx="4" transform="rotate(90 59.2952 21.7048)" fill="#8BA023" style="fill:#8BA023;fill:color(display-p3 0.5447 0.6288 0.1379);fill-opacity:1;"/>
<rect x="77" y="4" width="36.2951" height="36.2951" rx="4" transform="rotate(90 77 4)" fill="#8BA023" style="fill:#8BA023;fill:color(display-p3 0.5447 0.6288 0.1379);fill-opacity:1;"/>
<rect x="23.8853" y="23.2976" width="24.7869" height="20.3607" transform="rotate(-45 23.8853 23.2976)" fill="#8BA023" style="fill:#8BA023;fill:color(display-p3 0.5447 0.6288 0.1379);fill-opacity:1;"/>
<rect x="43.3606" y="42.7729" width="24.7869" height="20.3607" transform="rotate(-45 43.3606 42.7729)" fill="#8BA023" style="fill:#8BA023;fill:color(display-p3 0.5447 0.6288 0.1379);fill-opacity:1;"/>
<path d="M53.64 35H47.16V9.26H59.292C65.016 9.26 68.472 11.924 68.472 16.604C68.472 20.204 66.456 22.328 63.252 23.048V23.12C69.696 24.236 67.356 34.208 68.832 34.64V35H62.1C60.84 33.92 63.18 26.036 57.672 26.036H53.64V35ZM53.64 20.744H58.032C60.624 20.744 61.992 19.808 61.992 17.648C61.992 15.488 60.624 14.552 58.032 14.552H53.64V20.744Z" fill="#F5F5F5" style="fill:#F5F5F5;fill:color(display-p3 0.9608 0.9608 0.9608);fill-opacity:1;"/>
<circle cx="72.5" cy="8.5" r="2.5" fill="#F5F5F5" style="fill:#F5F5F5;fill:color(display-p3 0.9608 0.9608 0.9608);fill-opacity:1;"/>
</g>
<defs>
<clipPath id="clip0_2786_2">
<rect width="402" height="60" rx="20" fill="white" style="fill:white;fill-opacity:1;"/>
</clipPath>
</defs>
</svg>
