<svg width="61" height="61" viewBox="0 0 61 61" fill="none" xmlns="http://www.w3.org/2000/svg">
<rect x="43.2952" y="17.7048" width="36.2951" height="36.2951" rx="4" transform="rotate(90 43.2952 17.7048)" fill="black" style="fill:black;fill-opacity:1;"/>
<rect x="61" width="36.2951" height="36.2951" rx="4" transform="rotate(90 61 0)" fill="black" style="fill:black;fill-opacity:1;"/>
<rect x="7.88525" y="19.2976" width="24.7869" height="20.3607" transform="rotate(-45 7.88525 19.2976)" fill="black" style="fill:black;fill-opacity:1;"/>
<rect x="27.3606" y="38.7729" width="24.7869" height="20.3607" transform="rotate(-45 27.3606 38.7729)" fill="black" style="fill:black;fill-opacity:1;"/>
<path d="M37.64 31H31.16V5.26H43.292C49.016 5.26 52.472 7.924 52.472 12.604C52.472 16.204 50.456 18.328 47.252 19.048V19.12C53.696 20.236 51.356 30.208 52.832 30.64V31H46.1C44.84 29.92 47.18 22.036 41.672 22.036H37.64V31ZM37.64 16.744H42.032C44.624 16.744 45.992 15.808 45.992 13.648C45.992 11.488 44.624 10.552 42.032 10.552H37.64V16.744Z" fill="white" style="fill:white;fill-opacity:1;"/>
</svg>
